<?xml version="1.0" encoding="UTF-8" standalone="no"?>
<svg
   xmlns:dc="http://purl.org/dc/elements/1.1/"
   xmlns:cc="http://creativecommons.org/ns#"
   xmlns:rdf="http://www.w3.org/1999/02/22-rdf-syntax-ns#"
   xmlns:svg="http://www.w3.org/2000/svg"
   xmlns="http://www.w3.org/2000/svg"
   xmlns:sodipodi="http://sodipodi.sourceforge.net/DTD/sodipodi-0.dtd"
   xmlns:inkscape="http://www.inkscape.org/namespaces/inkscape"
   version="1.0"
   width="337.76999mm"
   height="190.14999mm"
   id="svg3068"
   inkscape:version="0.48.4 r9939"
   sodipodi:docname="sick_file.EMF">
  <metadata
     id="metadata3152">
    <rdf:RDF>
      <cc:Work
         rdf:about="">
        <dc:format>image/svg+xml</dc:format>
        <dc:type
           rdf:resource="http://purl.org/dc/dcmitype/StillImage" />
        <dc:title></dc:title>
      </cc:Work>
    </rdf:RDF>
  </metadata>
  <sodipodi:namedview
     pagecolor="#ffffff"
     bordercolor="#666666"
     borderopacity="1"
     objecttolerance="10"
     gridtolerance="10"
     guidetolerance="10"
     inkscape:pageopacity="0"
     inkscape:pageshadow="2"
     inkscape:window-width="1920"
     inkscape:window-height="1017"
     id="namedview3150"
     showgrid="false"
     inkscape:zoom="1.062814"
     inkscape:cx="598.41138"
     inkscape:cy="336.87991"
     inkscape:window-x="-4"
     inkscape:window-y="-4"
     inkscape:window-maximized="1"
     inkscape:current-layer="svg3068" />
  <defs
     id="defs3070" />
  <g
     id="g3192">
    <path
       style="fill:#a6a6a6;fill-opacity:1;fill-rule:evenodd;stroke:none"
       d="m 381.76268,282.82458 c 0.26184,100.80839 0.48628,201.61678 0.71071,302.42517 92.46692,0.0748 119.73568,-2.24434 277.36335,0.26184 l -2.76803,-313.87132 -57.56739,-50.83436 -115.62105,3.10467 10.73544,43.46544 52.85427,48.62742 -72.49227,-48.14115 -11.67058,-43.50284 -82.92846,1.53364 0.71071,63.81414"
       id="path3076"
       inkscape:connector-curvature="0" />
    <path
       style="fill:none;stroke:#000000;stroke-width:8.7155304px;stroke-linecap:butt;stroke-linejoin:miter;stroke-miterlimit:4;stroke-opacity:1;stroke-dasharray:none"
       d="m 381.76268,282.82458 c 0.26184,100.80839 0.48628,201.61678 0.71071,302.42517 92.46692,0.0748 119.73568,-2.24434 277.36335,0.26184 l -2.76803,-313.87132 -57.56739,-50.83436 -115.62105,3.10467 10.73544,43.46544 52.85427,48.62742 -72.49227,-48.14115 -11.67058,-43.50284 -82.92846,1.53364 0.71071,63.81414"
       id="path3078"
       inkscape:connector-curvature="0" />
    <path
       style="fill:#ffffff;fill-opacity:1;fill-rule:evenodd;stroke:none"
       d="m 341.10268,459.64137 c 0,-14.85006 12.73664,-26.8947 28.44704,-26.8947 15.7104,0 28.44704,12.04464 28.44704,26.8947 0,14.85007 -12.73664,26.87601 -28.44704,26.87601 -15.7104,0 -28.44704,-12.02594 -28.44704,-26.87601"
       id="path3080"
       inkscape:connector-curvature="0" />
    <path
       style="fill:none;stroke:#000000;stroke-width:8.09833622px;stroke-linecap:butt;stroke-linejoin:miter;stroke-miterlimit:4;stroke-opacity:1;stroke-dasharray:none"
       d="m 341.10268,459.64137 c 0,-14.85006 12.73664,-26.8947 28.44704,-26.8947 15.7104,0 28.44704,12.04464 28.44704,26.8947 0,14.85007 -12.73664,26.87601 -28.44704,26.87601 -15.7104,0 -28.44704,-12.02594 -28.44704,-26.87601"
       id="path3082"
       inkscape:connector-curvature="0" />
    <path
       style="fill:#000000;fill-opacity:1;fill-rule:evenodd;stroke:none"
       d="m 352.17477,465.94423 c 0,-5.76047 4.75052,-10.43619 10.58581,-10.43619 5.854,0 10.60452,4.67572 10.60452,10.43619 0,5.77919 -4.75052,10.4362 -10.60452,10.4362 -5.83529,0 -10.58581,-4.65701 -10.58581,-10.4362"
       id="path3084"
       inkscape:connector-curvature="0" />
    <path
       style="fill:none;stroke:#000000;stroke-width:8.09833622px;stroke-linecap:butt;stroke-linejoin:miter;stroke-miterlimit:4;stroke-opacity:1;stroke-dasharray:none"
       d="m 352.17477,465.94423 c 0,-5.76047 4.75052,-10.43619 10.58581,-10.43619 5.854,0 10.60452,4.67572 10.60452,10.43619 0,5.77919 -4.75052,10.4362 -10.60452,10.4362 -5.83529,0 -10.58581,-4.65701 -10.58581,-10.4362"
       id="path3086"
       inkscape:connector-curvature="0" />
    <path
       style="fill:none;stroke:#000000;stroke-width:8.73423386px;stroke-linecap:butt;stroke-linejoin:miter;stroke-miterlimit:4;stroke-opacity:1;stroke-dasharray:none"
       d="m 495.8688,404.69238 c -0.72941,10.21176 -1.45882,20.44222 -5.59215,29.64403 -4.15203,9.22051 -17.61809,18.31009 -19.22654,25.64161 -1.58974,7.35023 4.00242,12.88627 9.61327,18.44102"
       id="path3088"
       inkscape:connector-curvature="0" />
    <path
       style="fill:none;stroke:#000000;stroke-width:8.73423386px;stroke-linecap:butt;stroke-linejoin:miter;stroke-miterlimit:4;stroke-opacity:1;stroke-dasharray:none"
       d="M 461.86701,526.27965 442.90232,506.15537"
       id="path3090"
       inkscape:connector-curvature="0" />
    <path
       style="fill:none;stroke:#000000;stroke-width:8.7155304px;stroke-linecap:butt;stroke-linejoin:miter;stroke-miterlimit:4;stroke-opacity:1;stroke-dasharray:none"
       d="m 596.09741,222.82582 c 0,18.14177 0,35.46061 0,53.60238 l 60.14838,-1.60844"
       id="path3092"
       inkscape:connector-curvature="0" />
    <path
       style="fill:none;stroke:#000000;stroke-width:8.73423386px;stroke-linecap:butt;stroke-linejoin:miter;stroke-miterlimit:4;stroke-opacity:1;stroke-dasharray:none"
       d="m 462.4281,357.69211 -24.91221,25.73513"
       id="path3094"
       inkscape:connector-curvature="0" />
    <path
       style="fill:none;stroke:#000000;stroke-width:8.73423386px;stroke-linecap:butt;stroke-linejoin:miter;stroke-miterlimit:4;stroke-opacity:1;stroke-dasharray:none"
       d="m 436.9174,362.42393 30.7849,17.99215"
       id="path3096"
       inkscape:connector-curvature="0" />
    <path
       style="fill:none;stroke:#000000;stroke-width:6.22805071px;stroke-linecap:butt;stroke-linejoin:miter;stroke-miterlimit:4;stroke-opacity:1;stroke-dasharray:none"
       d="m 399.75483,459.22991 c 7.61206,-4.6009 15.22412,-9.1831 18.38491,-14.77526 3.14208,-5.57345 2.15083,-15.54207 0.54238,-18.75896 -1.62715,-3.19819 -7.59336,-3.31041 -10.24917,-0.48627 -2.6558,2.80542 -8.22925,13.74659 -5.72307,17.37495 2.48748,3.62835 15.11191,5.8727 20.68536,4.37647 5.59215,-1.47753 10.41749,-8.95867 12.79275,-13.27903 2.37526,-4.30166 2.65581,-7.44374 1.49623,-12.56832 -1.17828,-5.12458 -5.29291,-15.18672 -8.5098,-18.19788 -3.21689,-3.01116 -9.31402,-2.33785 -10.77284,0.11222 -1.45883,2.45007 -0.91644,11.1095 2.03861,14.62563 2.97375,3.49744 11.07209,7.63077 15.7291,6.39638 4.63831,-1.23439 10.41749,-8.79034 12.19426,-13.82141 1.75807,-5.03107 1.57104,-11.25912 -1.58974,-16.3463 -3.16078,-5.10588 -14.3825,-13.7653 -17.33755,-14.23287 -2.95505,-0.48627 -2.5997,6.95746 -0.43016,11.37134 2.16953,4.39517 9.70678,17.82382 13.40994,15.03709 3.70317,-2.78672 6.26546,-17.26273 8.82775,-31.75745"
       id="path3098"
       inkscape:connector-curvature="0" />
    <path
       style="fill:none;stroke:#000000;stroke-width:8.73423386px;stroke-linecap:butt;stroke-linejoin:miter;stroke-miterlimit:4;stroke-opacity:1;stroke-dasharray:none"
       d="m 410.82692,239.62098 c 5.27421,-13.7653 10.54841,-27.5119 8.00482,-38.47177 -2.54359,-10.95987 -16.02834,-21.6392 -23.24765,-27.25006 -7.2006,-5.61086 -13.61568,-6.02232 -20.03075,-6.41508"
       id="path3100"
       inkscape:connector-curvature="0" />
    <path
       style="fill:none;stroke:#000000;stroke-width:8.7155304px;stroke-linecap:butt;stroke-linejoin:miter;stroke-miterlimit:4;stroke-opacity:1;stroke-dasharray:none"
       d="m 559.96349,239.65839 c -0.6733,-11.25912 -1.34661,-22.51824 3.17948,-28.95202 4.5635,-6.43378 12.15686,-8.19185 24.05188,-9.65068 11.93242,-1.45882 34.7499,-2.69321 47.43044,0.82293 7.63076,0.0374 -1.2718,-0.37406 -1.60845,-0.48627"
       id="path3102"
       inkscape:connector-curvature="0" />
    <path
       style="fill:none;stroke:#000000;stroke-width:8.73423386px;stroke-linecap:butt;stroke-linejoin:miter;stroke-miterlimit:4;stroke-opacity:1;stroke-dasharray:none"
       d="m 519.11645,241.19202 c 1.9451,-8.34147 3.87149,-16.68294 1.60845,-26.42713 -2.28175,-9.74419 -10.02473,-24.96831 -15.22413,-32.03799 -5.19939,-7.06968 -10.60452,-8.75294 -16.02834,-10.41749"
       id="path3104"
       inkscape:connector-curvature="0" />
    <path
       style="fill:#ff0000;fill-opacity:1;fill-rule:evenodd;stroke:none"
       d="m 554.61447,509.42837 c 2.43137,11.89502 -11.22171,21.24645 -18.3288,27.75504 -7.10708,6.50859 -18.44101,-0.22443 -24.35111,11.29653 -5.91011,11.52095 -13.61568,51.1336 -11.07209,57.75441 2.50618,6.62081 20.3487,-13.1294 26.2214,-18.02955 5.9101,-4.86274 7.1819,-5.94751 9.12699,-11.22171 1.9451,-5.27421 -2.88024,-14.85007 2.65581,-20.38612 5.49864,-5.57345 24.2763,-8.07963 30.44825,-12.94237 6.13453,-4.90015 7.14449,-11.55837 6.47118,-16.3837"
       id="path3106"
       inkscape:connector-curvature="0" />
    <path
       style="fill:none;stroke:#000000;stroke-width:8.7155304px;stroke-linecap:butt;stroke-linejoin:miter;stroke-miterlimit:4;stroke-opacity:1;stroke-dasharray:none"
       d="m 554.61447,509.42837 c 2.43137,11.89502 -11.22171,21.24645 -18.3288,27.75504 -7.10708,6.50859 -18.44101,-0.22443 -24.35111,11.29653 -5.91011,11.52095 -13.61568,51.1336 -11.07209,57.75441 2.50618,6.62081 20.3487,-13.1294 26.2214,-18.02955 5.9101,-4.86274 7.1819,-5.94751 9.12699,-11.22171 1.9451,-5.27421 -2.88024,-14.85007 2.65581,-20.38612 5.49864,-5.57345 24.2763,-8.07963 30.44825,-12.94237 6.13453,-4.90015 7.14449,-11.55837 6.47118,-16.3837"
       id="path3108"
       inkscape:connector-curvature="0" />
    <path
       style="fill:none;stroke:#000000;stroke-width:8.73423386px;stroke-linecap:butt;stroke-linejoin:miter;stroke-miterlimit:4;stroke-opacity:1;stroke-dasharray:none"
       d="m 452.55299,262.08311 c 3.9463,-14.4199 7.89261,-28.8585 8.04223,-40.08022 0.13092,-11.22171 -5.2368,-18.96469 -7.23801,-27.25006 -2.01991,-8.28536 -6.43378,-15.0932 -4.82533,-22.44342 1.60844,-7.35023 10.45489,-16.96349 14.47601,-21.63921 4.00241,-4.67571 6.82654,-5.53604 9.63197,-6.41508"
       id="path3110"
       inkscape:connector-curvature="0" />
    <path
       style="fill:#f8cbad;fill-opacity:1;fill-rule:evenodd;stroke:none"
       d="m 569.72638,347.57386 c 1.04736,-1.12217 2.80543,-1.15957 3.9276,-0.11221 l 36.91944,34.52547 c 1.12217,1.04736 1.19698,2.80543 0.14962,3.9276 l -7.59336,8.11704 c -1.04736,1.12217 -2.80543,1.15957 -3.9276,0.11221 L 562.28264,359.6185 c -1.12217,-1.04736 -1.19698,-2.80543 -0.14962,-3.9276 z"
       id="path3112"
       inkscape:connector-curvature="0" />
    <path
       style="fill:none;stroke:#000000;stroke-width:3.74057102px;stroke-linecap:butt;stroke-linejoin:miter;stroke-miterlimit:4;stroke-opacity:1;stroke-dasharray:none"
       d="m 569.72638,347.57386 c 1.04736,-1.12217 2.80543,-1.15957 3.9276,-0.11221 l 36.91944,34.52547 c 1.12217,1.04736 1.19698,2.80543 0.14962,3.9276 l -7.59336,8.11704 c -1.04736,1.12217 -2.80543,1.15957 -3.9276,0.11221 L 562.28264,359.6185 c -1.12217,-1.04736 -1.19698,-2.80543 -0.14962,-3.9276 z"
       id="path3114"
       inkscape:connector-curvature="0" />
    <path
       style="fill:#f8cbad;fill-opacity:1;fill-rule:evenodd;stroke:none"
       d="m 563.77887,388.23387 c -1.10347,-1.02866 -1.15958,-2.74932 -0.13092,-3.85279 l 34.6938,-37.10646 c 1.02865,-1.10347 2.74932,-1.15958 3.85279,-0.13092 l 7.96741,7.46244 c 1.10347,1.02865 1.15958,2.74932 0.13092,3.85279 l -34.69379,37.10646 c -1.02866,1.10347 -2.76803,1.15958 -3.85279,0.13092 z"
       id="path3116"
       inkscape:connector-curvature="0" />
    <path
       style="fill:none;stroke:#000000;stroke-width:3.74057102px;stroke-linecap:butt;stroke-linejoin:miter;stroke-miterlimit:4;stroke-opacity:1;stroke-dasharray:none"
       d="m 563.77887,388.23387 c -1.08476,-1.00995 -1.15958,-2.73062 -0.11222,-3.85279 l 34.6751,-37.10646 c 1.04736,-1.08477 2.76802,-1.15958 3.85279,-0.11222 l 7.96741,7.44374 c 1.12217,1.00995 1.15958,2.76802 0.14963,3.85279 l -34.7125,37.10646 c -1.00996,1.12217 -2.76803,1.15958 -3.85279,0.14962 z"
       id="path3118"
       inkscape:connector-curvature="0" />
    <path
       style="fill:#c55a11;fill-opacity:1;fill-rule:evenodd;stroke:none"
       d="m 588.09258,364.44384 5.12459,4.78793 -7.98612,8.5472 -5.12459,-4.80663 z"
       id="path3120"
       inkscape:connector-curvature="0" />
    <path
       style="fill:none;stroke:#000000;stroke-width:8.7155304px;stroke-linecap:butt;stroke-linejoin:miter;stroke-miterlimit:4;stroke-opacity:1;stroke-dasharray:none"
       d="m 455.97561,514.62777 c 11.22172,-22.21899 48.25337,-28.69018 82.70403,-14.43861 25.84735,10.69804 43.80209,30.56047 45.14869,49.97403"
       id="path3122"
       inkscape:connector-curvature="0" />
    <path
       style="fill:none;stroke:#000000;stroke-width:8.73423386px;stroke-linecap:butt;stroke-linejoin:miter;stroke-miterlimit:4;stroke-opacity:1;stroke-dasharray:none"
       d="m 573.22381,555.28777 27.02563,-5.85399"
       id="path3124"
       inkscape:connector-curvature="0" />
    <path
       style="fill:none;stroke:#000000;stroke-width:8.73423386px;stroke-linecap:butt;stroke-linejoin:miter;stroke-miterlimit:4;stroke-opacity:1;stroke-dasharray:none"
       d="m 421.43144,356.40161 c 3.47873,-10.97857 6.95746,-21.97585 14.92488,-30.99063 7.98612,-9.03348 20.44222,-16.08446 32.91702,-23.15413"
       id="path3126"
       inkscape:connector-curvature="0" />
    <path
       style="fill:none;stroke:#000000;stroke-width:8.7155304px;stroke-linecap:butt;stroke-linejoin:miter;stroke-miterlimit:4;stroke-opacity:1;stroke-dasharray:none"
       d="m 630.02438,347.01278 c -11.37133,-1.83288 -22.74267,-3.62836 -32.84221,-10.17436 -10.13695,-6.54599 -18.96469,-17.80511 -27.79244,-29.10164"
       id="path3128"
       inkscape:connector-curvature="0" />
    <path
       style="fill:#a9d18e;fill-opacity:1;fill-rule:evenodd;stroke:none"
       d="m 671.05845,239.65839 c 0,-4.48869 3.81538,-8.11704 8.4911,-8.11704 4.71312,0 8.49109,3.62835 8.49109,8.11704 0,4.45128 -3.77797,8.07963 -8.49109,8.07963 -4.67572,0 -8.4911,-3.62835 -8.4911,-8.07963"
       id="path3130"
       inkscape:connector-curvature="0" />
    <path
       style="fill:none;stroke:#000000;stroke-width:7.48114204px;stroke-linecap:butt;stroke-linejoin:miter;stroke-miterlimit:4;stroke-opacity:1;stroke-dasharray:none"
       d="m 671.05845,239.65839 c 0,-4.48869 3.81538,-8.11704 8.4911,-8.11704 4.71312,0 8.49109,3.62835 8.49109,8.11704 0,4.45128 -3.77797,8.07963 -8.49109,8.07963 -4.67572,0 -8.4911,-3.62835 -8.4911,-8.07963"
       id="path3132"
       inkscape:connector-curvature="0" />
    <path
       style="fill:#a9d18e;fill-opacity:1;fill-rule:evenodd;stroke:none"
       d="m 715.15978,199.59687 c 0,-5.34901 4.5635,-9.65067 10.21176,-9.65067 5.64826,0 10.21176,4.30166 10.21176,9.65067 0,5.34902 -4.5635,9.65068 -10.21176,9.65068 -5.64826,0 -10.21176,-4.30166 -10.21176,-9.65068"
       id="path3134"
       inkscape:connector-curvature="0" />
    <path
       style="fill:none;stroke:#000000;stroke-width:7.48114204px;stroke-linecap:butt;stroke-linejoin:miter;stroke-miterlimit:4;stroke-opacity:1;stroke-dasharray:none"
       d="m 715.15978,199.59687 c 0,-5.34901 4.5635,-9.65067 10.21176,-9.65067 5.64826,0 10.21176,4.30166 10.21176,9.65067 0,5.34902 -4.5635,9.65068 -10.21176,9.65068 -5.64826,0 -10.21176,-4.30166 -10.21176,-9.65068"
       id="path3136"
       inkscape:connector-curvature="0" />
    <path
       style="fill:#a9d18e;fill-opacity:1;fill-rule:evenodd;stroke:none"
       d="m 669.97368,183.47501 c 0,-8.90256 7.63077,-16.15927 17.05701,-16.15927 9.42624,0 17.057,7.25671 17.057,16.15927 0,8.90256 -7.63076,16.12186 -17.057,16.12186 -9.42624,0 -17.05701,-7.2193 -17.05701,-16.12186"
       id="path3138"
       inkscape:connector-curvature="0" />
    <path
       style="fill:none;stroke:#000000;stroke-width:7.48114204px;stroke-linecap:butt;stroke-linejoin:miter;stroke-miterlimit:4;stroke-opacity:1;stroke-dasharray:none"
       d="m 669.97368,183.47501 c 0,-8.90256 7.63077,-16.15927 17.05701,-16.15927 9.42624,0 17.057,7.25671 17.057,16.15927 0,8.90256 -7.63076,16.12186 -17.057,16.12186 -9.42624,0 -17.05701,-7.2193 -17.05701,-16.12186"
       id="path3140"
       inkscape:connector-curvature="0" />
    <path
       style="fill:#a9d18e;fill-opacity:1;fill-rule:evenodd;stroke:none"
       d="m 632.41835,126.50611 c 0,-9.8377 8.41629,-17.76771 18.77767,-17.76771 10.36138,0 18.77766,7.93001 18.77766,17.76771 0,9.8003 -8.41628,17.76772 -18.77766,17.76772 -10.36138,0 -18.77767,-7.96742 -18.77767,-17.76772"
       id="path3142"
       inkscape:connector-curvature="0" />
    <path
       style="fill:none;stroke:#000000;stroke-width:7.48114204px;stroke-linecap:butt;stroke-linejoin:miter;stroke-miterlimit:4;stroke-opacity:1;stroke-dasharray:none"
       d="m 632.41835,126.50611 c 0,-9.8377 8.41629,-17.76771 18.77767,-17.76771 10.36138,0 18.77766,7.93001 18.77766,17.76771 0,9.8003 -8.41628,17.76772 -18.77766,17.76772 -10.36138,0 -18.77767,-7.96742 -18.77767,-17.76772"
       id="path3144"
       inkscape:connector-curvature="0" />
    <path
       style="fill:#a9d18e;fill-opacity:1;fill-rule:evenodd;stroke:none"
       d="m 626.47084,175.13354 c 0,-7.40633 6.35897,-13.42865 14.21417,-13.42865 7.8178,0 14.17677,6.02232 14.17677,13.42865 0,7.40633 -6.35897,13.39124 -14.17677,13.39124 -7.8552,0 -14.21417,-5.98491 -14.21417,-13.39124"
       id="path3146"
       inkscape:connector-curvature="0" />
    <path
       style="fill:none;stroke:#000000;stroke-width:7.48114204px;stroke-linecap:butt;stroke-linejoin:miter;stroke-miterlimit:4;stroke-opacity:1;stroke-dasharray:none"
       d="m 626.47084,175.13354 c 0,-7.40633 6.35897,-13.42865 14.21417,-13.42865 7.8178,0 14.17677,6.02232 14.17677,13.42865 0,7.40633 -6.35897,13.39124 -14.17677,13.39124 -7.8552,0 -14.21417,-5.98491 -14.21417,-13.39124"
       id="path3148"
       inkscape:connector-curvature="0" />
  </g>
</svg>
